<svg width="184" height="184" viewBox="28 30 184 184" fill="none" xmlns="http://www.w3.org/2000/svg">
<path d="M120 40C156 60 172 118 160 162C150 196 138 208 120 208C102 208 90 196 80 162C68 118 84 60 120 40Z" fill="#8A5A2B" stroke="#4A3A28" stroke-width="5" stroke-linecap="round" stroke-linejoin="round"/>
<path d="M120 52C124 100 124 150 120 198" stroke="#5E3A1B" stroke-width="6" stroke-linecap="round" stroke-linejoin="round"/>
<path d="M102 66C96 112 98 156 106 190" stroke="#6E4321" stroke-width="3" stroke-linecap="round" stroke-linejoin="round"/>
<path d="M88 86C82 120 84 150 92 178" stroke="#6E4321" stroke-width="3" stroke-linecap="round" stroke-linejoin="round"/>
<path d="M138 66C144 112 142 156 134 190" stroke="#6E4321" stroke-width="3" stroke-linecap="round" stroke-linejoin="round"/>
<path d="M152 86C158 120 156 150 148 178" stroke="#6E4321" stroke-width="3" stroke-linecap="round" stroke-linejoin="round"/>
</svg>
